<svg version="1.1" width="1000" height="1000" xmlns="http://www.w3.org/2000/svg">
    <rect height="1000" width="1000" fill="white"/>

    <rect x="200" y="100" width="600" height="100" fill="orange"/>
    <rect x="100" y="200" width="100" height="200" fill="orange"/>
    <rect x="800" y="200" width="100" height="300" fill="orange"/>

    <line x1="0" y1="0" x2="0" y2="1000" stroke="black" stroke-dasharray="23" stroke-width="3"/>
    <line x1="100" y1="0" x2="100" y2="1000" stroke="black" stroke-dasharray="23" stroke-width="1"/>
    <line x1="200" y1="0" x2="200" y2="1000" stroke="black" stroke-dasharray="23" stroke-width="1"/>
    <line x1="300" y1="0" x2="300" y2="1000" stroke="black" stroke-dasharray="23" stroke-width="1"/>
    <line x1="400" y1="0" x2="400" y2="1000" stroke="black" stroke-dasharray="23" stroke-width="1"/>
    <line x1="500" y1="0" x2="500" y2="1000" stroke="black" stroke-dasharray="23" stroke-width="1"/>
    <line x1="600" y1="0" x2="600" y2="1000" stroke="black" stroke-dasharray="23" stroke-width="1"/>
    <line x1="700" y1="0" x2="700" y2="1000" stroke="black" stroke-dasharray="23" stroke-width="1"/>
    <line x1="800" y1="0" x2="800" y2="1000" stroke="black" stroke-dasharray="23" stroke-width="1"/>
    <line x1="900" y1="0" x2="900" y2="1000" stroke="black" stroke-dasharray="23" stroke-width="1"/>
    <line x1="1000" y1="0" x2="1000" y2="1000" stroke="black" stroke-dasharray="23" stroke-width="3"/>

    <line x1="0" y1="0" x2="1000" y2="0" stroke="black" stroke-dasharray="23" stroke-width="3"/>
    <line x1="0" y1="100" x2="1000" y2="100" stroke="black" stroke-dasharray="23" stroke-width="1"/>
    <line x1="0" y1="200" x2="1000" y2="200" stroke="black" stroke-dasharray="23" stroke-width="1"/>
    <line x1="0" y1="300" x2="1000" y2="300" stroke="black" stroke-dasharray="23" stroke-width="1"/>
    <line x1="0" y1="400" x2="1000" y2="400" stroke="black" stroke-dasharray="23" stroke-width="1"/>
    <line x1="0" y1="500" x2="1000" y2="500" stroke="black" stroke-dasharray="23" stroke-width="1"/>
    <line x1="0" y1="600" x2="1000" y2="600" stroke="black" stroke-dasharray="23" stroke-width="1"/>
    <line x1="0" y1="700" x2="1000" y2="700" stroke="black" stroke-dasharray="23" stroke-width="1"/>
    <line x1="0" y1="800" x2="1000" y2="800" stroke="black" stroke-dasharray="23" stroke-width="1"/>
    <line x1="0" y1="900" x2="1000" y2="900" stroke="black" stroke-dasharray="23" stroke-width="1"/>
    <line x1="0" y1="1000" x2="1000" y2="1000" stroke="black" stroke-dasharray="23" stroke-width="3"/>

    <polyline stroke="black" fill="none" stroke-width="13"
              points="400,100, 100,100, 100,400, 200,400 200,200 800,200 800,500 900,500 900,100 700,100"/>

    <text x="500" y="600"
          transform="translate(50 60)"
          text-anchor="middle"
          dominant-baseline="middle"
          alignment-baseline="middle"
          font-size="100"
          font-family="Times New Roman">
        ла
    </text>
</svg>